<svg width="40" height="40" viewBox="0 0 40 40" fill="none" xmlns="http://www.w3.org/2000/svg">
<path d="M33.0313 27.8656L24.8094 11.3C24.7314 11.1407 24.6099 11.0069 24.4589 10.914C24.3079 10.821 24.1336 10.7728 23.9563 10.775C23.7792 10.7789 23.6068 10.8329 23.4591 10.9308C23.3115 11.0287 23.1945 11.1665 23.1219 11.3281L19.7282 18.875L16.9813 15.7531C16.8865 15.6474 16.7688 15.5646 16.6372 15.511C16.5057 15.4574 16.3637 15.4344 16.2219 15.4437C16.0812 15.4516 15.9441 15.4911 15.8207 15.5592C15.6974 15.6274 15.591 15.7225 15.5094 15.8375L7.07195 27.7437C6.97317 27.8823 6.914 28.0453 6.90078 28.215C6.88756 28.3847 6.9208 28.5548 6.99692 28.707C7.07305 28.8593 7.18919 28.9879 7.33288 29.0792C7.47658 29.1704 7.6424 29.2208 7.81257 29.225H32.1876C32.3469 29.2253 32.5037 29.185 32.6431 29.1079C32.7825 29.0308 32.9 28.9195 32.9844 28.7843C33.0706 28.6481 33.1201 28.492 33.1283 28.3311C33.1365 28.1702 33.1031 28.0099 33.0313 27.8656Z" fill="#E51F32"/>
</svg>
