<svg width="80" height="80" viewBox="0 0 80 80" fill="none" xmlns="http://www.w3.org/2000/svg">
<path d="M64.789 19.7969H52.1377V28.5875C52.1256 30.6538 50.3313 31.9708 48.3496 31.7594V32.285C48.3496 33.2758 49.1532 34.0794 50.144 34.0794H54.8263L55.6781 37.3962C55.7325 37.6137 55.9017 37.7769 56.1192 37.8312C56.3307 37.8856 56.5663 37.8131 56.7113 37.65L59.9194 34.0794H64.795C65.7859 34.0794 66.5894 33.2758 66.5894 32.285V21.5913C66.5894 20.6004 65.7859 19.7969 64.795 19.7969H64.789ZM61.0492 27.1617L57.9136 30.2973C57.6659 30.545 57.2671 30.545 57.0194 30.2973L53.8838 27.1617C51.5819 24.5396 55.8413 21.6335 57.4665 24.6785C59.0917 21.6335 63.3511 24.5456 61.0492 27.1617Z" fill="white"></path>
<path d="M31.028 31.7594C29.2819 31.7594 27.8561 30.3396 27.8561 28.5875V19.7969H15.2109C14.22 19.7969 13.4165 20.6004 13.4165 21.5913V32.285C13.4165 33.2758 14.22 34.0794 15.2109 34.0794H20.0865L23.2946 37.65C23.4457 37.8192 23.6753 37.8856 23.8867 37.8312C24.1042 37.7769 24.2734 37.6077 24.3278 37.3962L25.1796 34.0794H29.8619C30.8528 34.0794 31.6563 33.2758 31.6563 32.285V31.7594H31.034H31.028ZM26.1161 27.1617L22.9805 30.2973C22.7328 30.545 22.334 30.545 22.0863 30.2973L18.9507 27.1617C16.6488 24.5396 20.9082 21.6335 22.5334 24.6785C24.1586 21.6335 28.418 24.5456 26.1161 27.1617Z" fill="white"></path>
<path d="M48.9721 14.4196H31.0343C29.9529 14.4196 29.0708 15.3017 29.0708 16.3832V28.5934C29.0708 29.6748 29.9529 30.5569 31.0343 30.5569H37.1727L39.4866 34.484C39.5954 34.6713 39.7948 34.78 40.0062 34.78C40.2177 34.78 40.4171 34.6652 40.5258 34.484L42.8398 30.5569H48.9781C50.0596 30.5569 50.9416 29.6748 50.9416 28.5934V16.3771C50.9416 15.2957 50.0596 14.4136 48.9781 14.4136L48.9721 14.4196ZM44.5193 23.1679L40.9427 26.7446C40.4231 27.2642 39.5833 27.2642 39.0637 26.7446L35.4871 23.1679C32.6173 20.0504 37.0096 15.8696 40.0062 18.824C43.0029 15.8696 47.3952 20.0565 44.5254 23.1679H44.5193Z" fill="white"></path>
<path d="M55.9864 39.1846C52.8991 39.1846 50.3857 41.6979 50.3857 44.7852C50.6939 52.2164 61.2789 52.2104 61.587 44.7852C61.587 41.6979 59.0737 39.1846 55.9864 39.1846Z" fill="white"></path>
<path d="M24.0137 39.1846C20.9264 39.1846 18.4131 41.6979 18.4131 44.7852C18.7212 52.2164 29.3062 52.2104 29.6143 44.7852C29.6143 41.6979 27.101 39.1846 24.0137 39.1846Z" fill="white"></path>
<path d="M40 36.1875C36.6348 36.1875 33.8979 38.9244 33.8979 42.2896C34.2302 50.3794 45.7638 50.3794 46.0961 42.2896C46.0961 38.9244 43.3592 36.1875 39.994 36.1875H40Z" fill="white"></path>
<path d="M61.9798 51.9684H52.1802C52.5729 52.7539 52.8025 53.6359 52.8025 54.5724V65.3749H65.9793C66.3116 65.3749 66.5835 65.103 66.5835 64.7707V56.5661C66.5835 54.0286 64.5173 51.9624 61.9798 51.9624V51.9684Z" fill="white"></path>
<path d="M27.1975 54.5727C27.1975 53.6363 27.4271 52.7542 27.8198 51.9688H18.0203C15.4828 51.9688 13.4165 54.035 13.4165 56.5725V64.7771C13.4165 65.1094 13.6884 65.3813 14.0207 65.3813H27.1975V54.5787V54.5727Z" fill="white"></path>
<path d="M46.9965 49.9688H33.01C30.4725 49.9688 28.4062 52.035 28.4062 54.5725V64.7708C28.4062 65.1031 28.6781 65.375 29.0104 65.375H50.99C51.3223 65.375 51.5942 65.1031 51.5942 64.7708V54.5725C51.5942 52.035 49.5279 49.9688 46.9904 49.9688H46.9965Z" fill="white"></path>
</svg>