<svg width="60" height="60" viewBox="0 0 60 60" fill="none" xmlns="http://www.w3.org/2000/svg">
<path d="M31.454 23.4119C28.7194 23.7985 26.331 26.3658 26.3079 26.3889C26.2735 26.4244 26.2348 26.4555 26.1925 26.4812C22.4771 28.8927 20.3829 27.0581 20.2963 26.9485C17.9194 24.8081 20.1002 21.2196 20.1925 21.0696C21.1661 19.4514 22.3452 17.9659 23.7002 16.6504H13.6098L9.23096 31.0965C9.27799 31.1226 9.32078 31.1557 9.35788 31.1946C16.154 38.8792 25.1771 45.6985 28.7367 48.2715C29.1072 48.5455 29.5679 48.6685 30.0256 48.6157C30.4833 48.5629 30.9038 48.3382 31.2021 47.9871C31.5005 47.636 31.6543 47.1847 31.6325 46.7244C31.6107 46.2642 31.415 45.8294 31.0848 45.5081L26.1867 40.61C26.0793 40.5019 26.019 40.3557 26.019 40.2033C26.019 40.0509 26.0793 39.9046 26.1867 39.7965C26.2404 39.7425 26.3042 39.6996 26.3745 39.6703C26.4448 39.641 26.5202 39.6259 26.5963 39.6259C26.6725 39.6259 26.7479 39.641 26.8182 39.6703C26.8885 39.6996 26.9523 39.7425 27.006 39.7965L29.6137 42.4042L31.9213 44.7119L33.0752 45.8946C33.4891 46.2978 34.0445 46.5227 34.6223 46.5213C35.2001 46.5199 35.7543 46.2922 36.1663 45.8871C36.5782 45.4819 36.8151 44.9315 36.8261 44.3538C36.8371 43.7761 36.6214 43.2171 36.2252 42.7965L31.731 38.1062L30.8771 37.2235C30.823 37.1698 30.7801 37.106 30.7508 37.0357C30.7215 36.9654 30.7065 36.89 30.7065 36.8139C30.7065 36.7377 30.7215 36.6623 30.7508 36.592C30.7801 36.5217 30.823 36.4579 30.8771 36.4042C30.9307 36.3502 30.9946 36.3072 31.0649 36.278C31.1352 36.2487 31.2106 36.2336 31.2867 36.2336C31.3629 36.2336 31.4383 36.2487 31.5086 36.278C31.5789 36.3072 31.6427 36.3502 31.6963 36.4042L38.256 43.2119C38.5736 43.5263 38.9757 43.7417 39.4134 43.8319C39.8511 43.9221 40.3056 43.8833 40.7216 43.7202C41.1377 43.5571 41.4974 43.2766 41.7572 42.913C42.0169 42.5493 42.1655 42.118 42.1848 41.6715C42.1944 41.357 42.1377 41.0439 42.0184 40.7527C41.8991 40.4615 41.72 40.1986 41.4925 39.9812L37.5579 36.1735L34.8175 33.5139C34.7565 33.463 34.7067 33.4 34.6711 33.329C34.6356 33.2579 34.6151 33.1803 34.611 33.1009C34.6068 33.0216 34.6191 32.9422 34.6471 32.8679C34.675 32.7935 34.718 32.7257 34.7734 32.6687C34.8288 32.6118 34.8953 32.5669 34.9689 32.5368C35.0424 32.5067 35.1214 32.4922 35.2008 32.4941C35.2802 32.496 35.3584 32.5143 35.4304 32.5478C35.5025 32.5813 35.5668 32.6293 35.6194 32.6889L43.4079 40.2292C43.6121 40.439 43.8568 40.6053 44.127 40.7181C44.3972 40.8308 44.6875 40.8876 44.9803 40.8852C45.2731 40.8827 45.5624 40.821 45.8307 40.7038C46.099 40.5866 46.3408 40.4162 46.5415 40.203C46.7423 39.9898 46.8977 39.7382 46.9986 39.4633C47.0995 39.1884 47.1437 38.896 47.1285 38.6035C47.1133 38.3111 47.0391 38.0248 46.9103 37.7618C46.7815 37.4989 46.6008 37.2647 46.379 37.0735L31.454 23.4119Z" fill="white"/>
<path d="M11.8499 13.2695C8.85488 11.923 5.58906 11.2872 2.30762 11.4118V34.0388H5.83262C6.20883 34.0396 6.57509 33.9179 6.87594 33.692C7.17679 33.4661 7.39584 33.1484 7.49992 32.7868L12.7961 15.3464C12.9171 14.9444 12.8879 14.512 12.7138 14.1299C12.5398 13.7478 12.2327 13.442 11.8499 13.2695Z" fill="white"/>
<path d="M33.3231 14.3883C32.0789 13.8762 30.6887 13.8453 29.4231 14.3018C27.2135 15.1095 23.9885 17.0479 21.1558 21.6748C21.1558 21.7094 19.3846 24.5595 21.0519 26.0941C21.1096 26.146 22.5981 27.3921 25.4827 25.5518C25.8981 25.1191 28.5 22.5114 31.575 22.2287C31.6545 22.222 31.7345 22.2319 31.81 22.2577C31.8854 22.2835 31.9547 22.3247 32.0135 22.3787L47.1346 36.2248C47.2039 36.2883 47.2673 36.3575 47.3308 36.4268C49.0616 36.1614 50.2154 34.5806 50.55 34.0037L45.0693 19.0671L33.3231 14.3883Z" fill="white"/>
<path d="M56.5385 14.1636C53.2478 14.1418 49.9839 14.7569 46.9269 15.9752C46.5158 16.1514 46.1889 16.4799 46.0147 16.8918C45.8404 17.3037 45.8324 17.7671 45.9923 18.1848L52.4135 35.6598C52.5388 35.9969 52.7638 36.2879 53.0586 36.494C53.3533 36.7001 53.7038 36.8116 54.0635 36.8137H57.6923V14.1925C57.4039 14.1752 57.0058 14.1636 56.5385 14.1636Z" fill="white"/>
</svg>
