<svg width="482" height="715" viewBox="0 0 482 715" fill="none" xmlns="http://www.w3.org/2000/svg">
<rect x="481.219" y="2.10347e-05" width="714.337" height="481.218" rx="240.609" transform="rotate(90 481.219 2.10347e-05)" fill="url(#paint0_linear_498_1971)"></rect>
<rect x="18.7246" y="695.613" width="676.888" height="443.769" rx="221.885" transform="rotate(-90 18.7246 695.613)" fill="url(#paint1_linear_498_1971)"></rect>
<rect x="443.77" y="37.449" width="639.439" height="406.32" rx="203.16" transform="rotate(90 443.77 37.449)" fill="url(#paint2_linear_498_1971)"></rect>
<rect x="56.1738" y="658.164" width="601.991" height="368.871" rx="184.436" transform="rotate(-90 56.1738 658.164)" fill="url(#paint3_linear_498_1971)"></rect>
<rect x="406.32" y="74.8977" width="564.542" height="331.423" rx="165.711" transform="rotate(90 406.32 74.8977)" fill="url(#paint4_linear_498_1971)"></rect>
<rect x="93.623" y="620.715" width="527.093" height="293.974" rx="146.987" transform="rotate(-90 93.623 620.715)" fill="url(#paint5_linear_498_1971)"></rect>
<defs>
<linearGradient id="paint0_linear_498_1971" x1="568.466" y1="481.218" x2="862.057" y2="-113.491" gradientUnits="userSpaceOnUse">
<stop></stop>
<stop offset="1" stop-color="#343131"></stop>
</linearGradient>
<linearGradient id="paint1_linear_498_1971" x1="101.398" y1="1139.38" x2="367.645" y2="585.211" gradientUnits="userSpaceOnUse">
<stop></stop>
<stop offset="1" stop-color="#343131"></stop>
</linearGradient>
<linearGradient id="paint2_linear_498_1971" x1="521.869" y1="443.769" x2="760.863" y2="-69.4679" gradientUnits="userSpaceOnUse">
<stop></stop>
<stop offset="1" stop-color="#343131"></stop>
</linearGradient>
<linearGradient id="paint3_linear_498_1971" x1="129.699" y1="1027.04" x2="341.569" y2="555.207" gradientUnits="userSpaceOnUse">
<stop></stop>
<stop offset="1" stop-color="#343131"></stop>
</linearGradient>
<linearGradient id="paint4_linear_498_1971" x1="475.272" y1="406.32" x2="660.199" y2="-23.5281" gradientUnits="userSpaceOnUse">
<stop></stop>
<stop offset="1" stop-color="#343131"></stop>
</linearGradient>
<linearGradient id="paint5_linear_498_1971" x1="158.001" y1="914.688" x2="316.243" y2="527.518" gradientUnits="userSpaceOnUse">
<stop></stop>
<stop offset="1" stop-color="#343131"></stop>
</linearGradient>
</defs>
</svg>